<svg width="22" height="19" viewBox="0 0 22 19" fill="none" xmlns="http://www.w3.org/2000/svg">
<path fill-rule="evenodd" clip-rule="evenodd" d="M16.9071 5.86485C19.6297 6.68791 21.4055 8.01515 21.4055 9.41564C21.4055 10.8118 19.6384 12.1391 16.9333 12.9621C17.5659 15.6942 17.291 17.8703 16.065 18.5684C15.777 18.7322 15.4454 18.8097 15.0789 18.8097C13.8791 18.8097 12.3084 17.9738 10.7202 16.5172C9.13201 17.9824 7.56128 18.827 6.36143 18.827C5.99492 18.827 5.66333 18.7494 5.37972 18.5857C4.14933 17.8876 3.87009 15.7071 4.49837 12.9664C1.77579 12.1434 0 10.8161 0 9.41564C0 8.01946 1.76706 6.69653 4.48092 5.86916C3.84827 3.13711 4.12315 0.960956 5.34918 0.262862C5.63715 0.099112 5.96875 0.0215461 6.33525 0.0215461V0.0172369C7.5351 0.0172369 9.10583 0.853226 10.694 2.30974C12.2822 0.844607 13.8529 0 15.0528 0V0.0043129C15.4132 0.00493404 15.7433 0.0825332 16.0257 0.245625C17.2561 0.943719 17.5354 3.12418 16.9071 5.86485ZM15.0484 0.960962C14.141 0.96325 12.8078 1.67838 11.3877 2.98198C12.0029 3.61544 12.6138 4.33938 13.2028 5.13659C14.1845 5.24001 15.1182 5.39945 15.9734 5.60629C16.0694 5.17106 16.1479 4.74445 16.1959 4.33938C16.3966 2.69326 16.1392 1.41342 15.5458 1.0773C15.4105 1.00405 15.2491 0.965265 15.0484 0.965265V0.960962ZM10.0003 2.98629C8.57789 1.68921 7.23841 0.978193 6.33525 0.978193V0.982502C6.13454 0.982502 5.96438 1.01698 5.83349 1.09454C5.24447 1.43497 4.99141 2.71481 5.19647 4.36093C5.24883 4.76169 5.323 5.17968 5.42336 5.6106C6.27853 5.39945 7.21223 5.24001 8.1983 5.13659C8.77859 4.33938 9.38943 3.61974 10.0003 2.98629ZM15.1357 8.24354C15.3625 7.67041 15.5632 7.09728 15.7247 6.5414C15.1531 6.4035 14.5554 6.29146 13.9358 6.20097C14.1496 6.52847 14.3634 6.86459 14.5641 7.20932C14.7692 7.55406 14.9568 7.8988 15.1357 8.24354ZM12.6749 12.7768C13.037 12.264 13.386 11.7125 13.7264 11.1307C14.0536 10.5662 14.3547 9.98877 14.6295 9.41133C14.3547 8.8339 14.0536 8.26077 13.722 7.69627C13.3817 7.11883 13.0283 6.57156 12.6661 6.05876C12.0204 6.00705 11.3616 5.97689 10.7027 5.97689C10.0395 5.97689 9.3807 6.00705 8.7306 6.06307C8.36846 6.57587 8.01941 7.12745 7.67909 7.70919C7.35185 8.2737 7.04644 8.85114 6.77592 9.42857C7.0508 10.006 7.35185 10.5791 7.68345 11.1436C8.02377 11.7211 8.37719 12.2683 8.73933 12.7811C9.38507 12.8329 10.0439 12.863 10.7027 12.863C11.3659 12.863 12.0248 12.8329 12.6749 12.7768ZM15.7378 12.2856C15.572 11.7254 15.3713 11.148 15.1357 10.5705C14.9568 10.9153 14.7692 11.2643 14.5685 11.609C14.3677 11.9581 14.154 12.2985 13.9402 12.6303C14.5641 12.5398 15.1662 12.4235 15.7378 12.2856ZM9.49851 13.7895C9.89991 14.2937 10.3057 14.7548 10.7115 15.1685C11.1129 14.7548 11.5186 14.2937 11.9113 13.7895C11.5143 13.811 11.1085 13.8197 10.6984 13.8197C10.2926 13.8197 9.89119 13.8067 9.49851 13.7895ZM5.67642 12.2899C6.24798 12.4278 6.84573 12.5398 7.46529 12.6303C7.2515 12.3028 7.04207 11.9667 6.83701 11.622C6.63194 11.2772 6.44432 10.9325 6.26544 10.5878C6.03856 11.1609 5.83785 11.734 5.67642 12.2899ZM11.9026 5.04179C11.5012 4.53761 11.0954 4.07652 10.6896 3.66284C10.2882 4.07652 9.88246 4.53761 9.48978 5.04179C9.88683 5.02024 10.2926 5.01162 10.7027 5.01162C11.1085 5.01162 11.5099 5.02455 11.9026 5.04179ZM6.83264 7.22225C7.03335 6.87321 7.24714 6.53278 7.46093 6.20097C6.83701 6.29146 6.2349 6.40781 5.66333 6.5414C5.82913 7.10159 6.02983 7.67903 6.26544 8.25646C6.44432 7.91173 6.63194 7.56699 6.83264 7.22225ZM0.968612 9.41564C0.968612 10.0922 1.96777 10.9454 3.51231 11.5961C3.8919 11.7556 4.30204 11.9021 4.73398 12.0356C4.97832 11.1954 5.30119 10.3206 5.7026 9.42426C5.29683 8.52364 4.96959 7.64456 4.72089 6.79995C4.29767 6.93353 3.88754 7.07574 3.51231 7.23518C1.96777 7.88156 0.968612 8.7391 0.968612 9.41564ZM5.20956 14.4919C5.00886 16.138 5.26628 17.4179 5.85967 17.754C5.99056 17.8272 6.15636 17.866 6.3527 17.8703C7.26023 17.8703 8.59534 17.155 10.0177 15.8493C9.40252 15.2159 8.79168 14.4919 8.20266 13.6947C7.22096 13.5913 6.28725 13.4318 5.43208 13.225C5.33609 13.6602 5.25756 14.0868 5.20956 14.4919ZM15.572 17.7367C16.161 17.3963 16.4141 16.1165 16.209 14.4704C16.161 14.0696 16.0825 13.6516 15.9821 13.2164C15.1269 13.4275 14.1932 13.587 13.2072 13.6904C12.6269 14.4876 12.016 15.2072 11.4052 15.8407C12.8276 17.1378 14.167 17.8488 15.0702 17.8488C15.2709 17.8488 15.4411 17.8143 15.572 17.7367ZM16.6802 12.0313C17.1034 11.8978 17.5136 11.7556 17.8888 11.5961C19.4333 10.9497 20.4325 10.0922 20.4368 9.41564C20.4368 8.7391 19.4377 7.88587 17.8931 7.23518C17.5092 7.07574 17.0991 6.92922 16.6671 6.79564C16.4228 7.63594 16.0999 8.51071 15.6985 9.40703C16.1043 10.3077 16.4315 11.1867 16.6802 12.0313ZM12.6923 9.41567C12.6923 10.5033 11.7996 11.385 10.6984 11.385C9.59715 11.385 8.70443 10.5033 8.70443 9.41567C8.70443 8.32805 9.59715 7.44636 10.6984 7.44636C11.7996 7.44636 12.6923 8.32805 12.6923 9.41567Z" fill="#61DCFB"/>
</svg>
